<?xml version="1.0" encoding="utf-8"?>
<!-- Generator: Adobe Illustrator 24.1.0, SVG Export Plug-In . SVG Version: 6.00 Build 0)  -->
<svg version="1.1" id="Layer_1" xmlns="http://www.w3.org/2000/svg" xmlns:xlink="http://www.w3.org/1999/xlink" x="0px" y="0px"
	 viewBox="0 0 159 162" style="enable-background:new 0 0 159 162;" xml:space="preserve">
<style type="text/css">
	.st0{fill:url(#SVGID_1_);}
	.st1{fill:url(#SVGID_2_);}
	.st2{fill:url(#SVGID_3_);}
	.st3{fill:url(#SVGID_4_);}
	.st4{fill:url(#SVGID_5_);}
</style>
<g>
	<g>
		<linearGradient id="SVGID_1_" gradientUnits="userSpaceOnUse" x1="109.9092" y1="77.4145" x2="135.974" y2="77.4145">
			<stop  offset="0" style="stop-color:#FFFFFF"/>
			<stop  offset="0.8978" style="stop-color:#000000"/>
		</linearGradient>
		<polygon class="st0" points="135.8,130.31 109.91,116.22 110.08,24.52 135.97,38.61 		"/>
	</g>
	<g>
		<linearGradient id="SVGID_2_" gradientUnits="userSpaceOnUse" x1="76.5356" y1="121.1013" x2="89.4109" y2="148.3666">
			<stop  offset="0" style="stop-color:#FFFFFF"/>
			<stop  offset="0.8978" style="stop-color:#000000"/>
		</linearGradient>
		<polygon class="st1" points="50.84,142.25 24.95,128.16 109.91,116.22 135.8,130.31 		"/>
	</g>
	<g>
		<g>
			<linearGradient id="SVGID_3_" gradientUnits="userSpaceOnUse" x1="8.7808" y1="19.8644" x2="152.3783" y2="19.8644">
				<stop  offset="0" style="stop-color:#FFFFFF"/>
				<stop  offset="0.8978" style="stop-color:#000000"/>
			</linearGradient>
			<polygon class="st2" points="34.68,35.18 8.78,21.09 126.48,4.55 152.38,18.64 			"/>
		</g>
	</g>
	<g>
		<g>
			<linearGradient id="SVGID_4_" gradientUnits="userSpaceOnUse" x1="56.3812" y1="56.8845" x2="-13.1611" y2="126.4268">
				<stop  offset="0.1022" style="stop-color:#FFFFFF"/>
				<stop  offset="1" style="stop-color:#000000"/>
			</linearGradient>
			<polygon class="st3" points="34.44,162.22 8.54,148.13 8.78,21.09 34.68,35.18 			"/>
		</g>
	</g>
	<linearGradient id="SVGID_5_" gradientUnits="userSpaceOnUse" x1="34.4393" y1="90.4278" x2="152.3783" y2="90.4278">
		<stop  offset="0" style="stop-color:#FFFFFF"/>
		<stop  offset="0.8978" style="stop-color:#000000"/>
	</linearGradient>
	<path class="st4" d="M34.44,162.22l0.24-127.04l117.7-16.54l-0.24,127.04L34.44,162.22z M51.01,50.55l-0.17,91.7l84.96-11.94
		l0.17-91.7L51.01,50.55"/>
</g>
</svg>
