<?xml version="1.0" encoding="utf-8"?>
<!-- Generator: Adobe Illustrator 24.1.0, SVG Export Plug-In . SVG Version: 6.00 Build 0)  -->
<svg version="1.1" id="Layer_1" xmlns="http://www.w3.org/2000/svg" xmlns:xlink="http://www.w3.org/1999/xlink" x="0px" y="0px"
	 viewBox="0 0 160 169" style="enable-background:new 0 0 160 169;" xml:space="preserve">
<style type="text/css">
	.st0{clip-path:url(#SVGID_3_);enable-background:new    ;}
	.st1{fill:url(#SVGID_4_);}
	.st2{fill:url(#SVGID_5_);}
	.st3{fill:url(#SVGID_6_);}
	.st4{fill:url(#SVGID_7_);}
	.st5{fill:url(#SVGID_8_);}
	.st6{fill:url(#SVGID_9_);}
	.st7{fill:url(#SVGID_10_);}
	.st8{enable-background:new    ;}
	.st9{clip-path:url(#SVGID_13_);enable-background:new    ;}
	.st10{fill:url(#SVGID_14_);}
	.st11{fill:url(#SVGID_15_);}
	.st12{fill:url(#SVGID_16_);}
	.st13{fill:url(#SVGID_17_);}
	.st14{fill:url(#SVGID_18_);}
	.st15{fill:url(#SVGID_19_);}
	.st16{fill:url(#SVGID_20_);}
	.st17{fill:url(#SVGID_21_);}
	.st18{fill:url(#SVGID_22_);}
	.st19{fill:url(#SVGID_23_);}
	.st20{fill:url(#SVGID_24_);}
	.st21{fill:url(#SVGID_25_);}
	.st22{fill:url(#SVGID_26_);}
	.st23{fill:url(#SVGID_27_);}
	.st24{fill:url(#SVGID_28_);}
	.st25{fill:url(#SVGID_29_);}
	.st26{fill:url(#SVGID_30_);}
	.st27{fill:url(#SVGID_31_);}
	.st28{fill:url(#SVGID_32_);}
	.st29{fill:url(#SVGID_33_);}
	.st30{fill:url(#SVGID_34_);}
	.st31{fill:url(#SVGID_35_);}
	.st32{fill:url(#SVGID_36_);}
	.st33{fill:url(#SVGID_37_);}
	.st34{fill:url(#SVGID_38_);}
	.st35{fill:url(#SVGID_39_);}
	.st36{fill:url(#SVGID_40_);}
	.st37{fill:url(#SVGID_41_);}
	.st38{fill:url(#SVGID_42_);}
	.st39{fill:url(#SVGID_43_);}
	.st40{fill:url(#SVGID_44_);}
	.st41{fill:url(#SVGID_45_);}
	.st42{fill:url(#SVGID_46_);}
	.st43{clip-path:url(#SVGID_48_);enable-background:new    ;}
	.st44{clip-path:url(#SVGID_51_);enable-background:new    ;}
	.st45{fill:url(#SVGID_52_);}
	.st46{fill:url(#SVGID_53_);}
	.st47{fill:url(#SVGID_54_);}
	.st48{fill:url(#SVGID_55_);}
	.st49{fill:url(#SVGID_56_);}
	.st50{fill:url(#SVGID_57_);}
	.st51{fill:url(#SVGID_58_);}
	.st52{fill:url(#SVGID_59_);}
	.st53{fill:url(#SVGID_60_);}
	.st54{fill:url(#SVGID_61_);}
	.st55{fill:url(#SVGID_62_);}
	.st56{fill:url(#SVGID_63_);}
	.st57{fill:url(#SVGID_64_);}
	.st58{fill:url(#SVGID_65_);}
	.st59{fill:url(#SVGID_66_);}
	.st60{fill:url(#SVGID_67_);}
	.st61{fill:url(#SVGID_68_);}
	.st62{fill:url(#SVGID_69_);}
	.st63{fill:url(#SVGID_70_);}
	.st64{fill:url(#SVGID_71_);}
	.st65{fill:url(#SVGID_72_);}
	.st66{fill:url(#SVGID_73_);}
	.st67{fill:url(#SVGID_74_);}
	.st68{fill:url(#SVGID_75_);}
	.st69{fill:url(#SVGID_76_);}
	.st70{fill:url(#SVGID_77_);}
	.st71{fill:url(#SVGID_78_);}
	.st72{fill:url(#SVGID_79_);}
	.st73{fill:url(#SVGID_80_);}
	.st74{fill:url(#SVGID_81_);}
	.st75{fill:url(#SVGID_82_);}
	.st76{fill:url(#SVGID_83_);}
	.st77{fill:url(#SVGID_84_);}
	.st78{fill:url(#SVGID_85_);}
</style>
<g>
	<g>
		<g>
			<defs>
				<path id="SVGID_1_" d="M113.53,128.16l-26.08,11.03c-6.17,2.61-13.11,3.68-20.44,2.83l26.08-11.03
					C100.43,131.84,107.36,130.77,113.53,128.16z"/>
			</defs>
			<linearGradient id="SVGID_2_" gradientUnits="userSpaceOnUse" x1="23.0606" y1="67.3296" x2="112.1384" y2="157.1375">
				<stop  offset="0" style="stop-color:#000000"/>
				<stop  offset="0.2511" style="stop-color:#474747"/>
				<stop  offset="0.6204" style="stop-color:#A9A9A9"/>
				<stop  offset="0.8782" style="stop-color:#E7E7E7"/>
				<stop  offset="1" style="stop-color:#FFFFFF"/>
			</linearGradient>
			<use xlink:href="#SVGID_1_"  style="overflow:visible;fill:url(#SVGID_2_);"/>
			<clipPath id="SVGID_3_">
				<use xlink:href="#SVGID_1_"  style="overflow:visible;"/>
			</clipPath>
			<g class="st0">
				<linearGradient id="SVGID_4_" gradientUnits="userSpaceOnUse" x1="17.5785" y1="72.7671" x2="106.6563" y2="162.575">
					<stop  offset="0" style="stop-color:#000000"/>
					<stop  offset="0.2511" style="stop-color:#474747"/>
					<stop  offset="0.6204" style="stop-color:#A9A9A9"/>
					<stop  offset="0.8782" style="stop-color:#E7E7E7"/>
					<stop  offset="1" style="stop-color:#FFFFFF"/>
				</linearGradient>
				<path class="st1" d="M67.01,142.03l26.08-11.03c0.56,0.06,1.11,0.12,1.66,0.16l-26.08,11.03
					C68.12,142.14,67.57,142.09,67.01,142.03"/>
				<linearGradient id="SVGID_5_" gradientUnits="userSpaceOnUse" x1="18.6096" y1="71.7444" x2="107.6873" y2="161.5523">
					<stop  offset="0" style="stop-color:#000000"/>
					<stop  offset="0.2511" style="stop-color:#474747"/>
					<stop  offset="0.6204" style="stop-color:#A9A9A9"/>
					<stop  offset="0.8782" style="stop-color:#E7E7E7"/>
					<stop  offset="1" style="stop-color:#FFFFFF"/>
				</linearGradient>
				<path class="st2" d="M68.67,142.19l26.08-11.03c0.91,0.07,1.81,0.11,2.71,0.12l-26.08,11.03
					C70.49,142.29,69.58,142.25,68.67,142.19"/>
				<linearGradient id="SVGID_6_" gradientUnits="userSpaceOnUse" x1="20.0003" y1="70.365" x2="109.078" y2="160.1729">
					<stop  offset="0" style="stop-color:#000000"/>
					<stop  offset="0.2511" style="stop-color:#474747"/>
					<stop  offset="0.6204" style="stop-color:#A9A9A9"/>
					<stop  offset="0.8782" style="stop-color:#E7E7E7"/>
					<stop  offset="1" style="stop-color:#FFFFFF"/>
				</linearGradient>
				<path class="st3" d="M71.38,142.31l26.08-11.03c0.96,0.01,1.92-0.01,2.87-0.06l-26.08,11.03
					C73.3,142.3,72.35,142.32,71.38,142.31"/>
				<linearGradient id="SVGID_7_" gradientUnits="userSpaceOnUse" x1="21.6034" y1="68.7749" x2="110.6812" y2="158.5828">
					<stop  offset="0" style="stop-color:#000000"/>
					<stop  offset="0.2511" style="stop-color:#474747"/>
					<stop  offset="0.6204" style="stop-color:#A9A9A9"/>
					<stop  offset="0.8782" style="stop-color:#E7E7E7"/>
					<stop  offset="1" style="stop-color:#FFFFFF"/>
				</linearGradient>
				<path class="st4" d="M74.25,142.24l26.08-11.03c1.06-0.06,2.1-0.16,3.14-0.3l-26.08,11.03
					C76.35,142.08,75.31,142.18,74.25,142.24"/>
				<linearGradient id="SVGID_8_" gradientUnits="userSpaceOnUse" x1="23.5152" y1="66.8787" x2="112.5929" y2="156.6866">
					<stop  offset="0" style="stop-color:#000000"/>
					<stop  offset="0.2511" style="stop-color:#474747"/>
					<stop  offset="0.6204" style="stop-color:#A9A9A9"/>
					<stop  offset="0.8782" style="stop-color:#E7E7E7"/>
					<stop  offset="1" style="stop-color:#FFFFFF"/>
				</linearGradient>
				<path class="st5" d="M77.38,141.94l26.08-11.03c1.19-0.16,2.37-0.37,3.52-0.64L80.9,141.31
					C79.75,141.57,78.57,141.78,77.38,141.94"/>
				<linearGradient id="SVGID_9_" gradientUnits="userSpaceOnUse" x1="25.9422" y1="64.4714" x2="115.0199" y2="154.2793">
					<stop  offset="0" style="stop-color:#000000"/>
					<stop  offset="0.2511" style="stop-color:#474747"/>
					<stop  offset="0.6204" style="stop-color:#A9A9A9"/>
					<stop  offset="0.8782" style="stop-color:#E7E7E7"/>
					<stop  offset="1" style="stop-color:#FFFFFF"/>
				</linearGradient>
				<path class="st6" d="M80.9,141.31l26.08-11.03c1.45-0.33,2.87-0.74,4.26-1.23l-26.08,11.03
					C83.78,140.56,82.35,140.98,80.9,141.31"/>
				<linearGradient id="SVGID_10_" gradientUnits="userSpaceOnUse" x1="28.1218" y1="62.3095" x2="117.1996" y2="152.1174">
					<stop  offset="0" style="stop-color:#000000"/>
					<stop  offset="0.2511" style="stop-color:#474747"/>
					<stop  offset="0.6204" style="stop-color:#A9A9A9"/>
					<stop  offset="0.8782" style="stop-color:#E7E7E7"/>
					<stop  offset="1" style="stop-color:#FFFFFF"/>
				</linearGradient>
				<path class="st7" d="M85.16,140.08l26.08-11.03c0.78-0.27,1.54-0.57,2.29-0.89l-26.08,11.03
					C86.7,139.51,85.94,139.81,85.16,140.08"/>
			</g>
		</g>
		<g>
			<g class="st8">
				<defs>
					<path id="SVGID_11_" class="st8" d="M45.78,40.29l26.08-11.03c-15.72,6.65-26.5,23.32-26.35,44.02
						c0.22,28.83,21.57,54.72,47.58,57.71l-26.08,11.03c-26.02-2.99-47.37-28.88-47.58-57.71C19.27,63.61,30.06,46.94,45.78,40.29z"
						/>
				</defs>
				<linearGradient id="SVGID_12_" gradientUnits="userSpaceOnUse" x1="33.5478" y1="56.9276" x2="122.6256" y2="146.7355">
					<stop  offset="0" style="stop-color:#000000"/>
					<stop  offset="0.2511" style="stop-color:#474747"/>
					<stop  offset="0.6204" style="stop-color:#A9A9A9"/>
					<stop  offset="0.8782" style="stop-color:#E7E7E7"/>
					<stop  offset="1" style="stop-color:#FFFFFF"/>
				</linearGradient>
				<use xlink:href="#SVGID_11_"  style="overflow:visible;fill:url(#SVGID_12_);"/>
				<clipPath id="SVGID_13_">
					<use xlink:href="#SVGID_11_"  style="overflow:visible;"/>
				</clipPath>
				<g class="st9">
					<linearGradient id="SVGID_14_" gradientUnits="userSpaceOnUse" x1="50.7979" y1="39.8178" x2="139.8756" y2="129.6257">
						<stop  offset="0" style="stop-color:#000000"/>
						<stop  offset="0.2511" style="stop-color:#474747"/>
						<stop  offset="0.6204" style="stop-color:#A9A9A9"/>
						<stop  offset="0.8782" style="stop-color:#E7E7E7"/>
						<stop  offset="1" style="stop-color:#FFFFFF"/>
					</linearGradient>
					<path class="st10" d="M45.78,40.29l26.08-11.03c-5.78,2.44-10.89,6.24-15.04,11.1L30.74,51.39
						C34.89,46.53,40,42.74,45.78,40.29"/>
					<linearGradient id="SVGID_15_" gradientUnits="userSpaceOnUse" x1="42.5864" y1="47.9625" x2="131.6642" y2="137.7704">
						<stop  offset="0" style="stop-color:#000000"/>
						<stop  offset="0.2511" style="stop-color:#474747"/>
						<stop  offset="0.6204" style="stop-color:#A9A9A9"/>
						<stop  offset="0.8782" style="stop-color:#E7E7E7"/>
						<stop  offset="1" style="stop-color:#FFFFFF"/>
					</linearGradient>
					<path class="st11" d="M30.74,51.39l26.08-11.03c-1.01,1.18-1.96,2.42-2.84,3.72L27.9,55.11
						C28.78,53.81,29.73,52.57,30.74,51.39"/>
					<linearGradient id="SVGID_16_" gradientUnits="userSpaceOnUse" x1="39.6413" y1="50.8836" x2="128.7191" y2="140.6915">
						<stop  offset="0" style="stop-color:#000000"/>
						<stop  offset="0.2511" style="stop-color:#474747"/>
						<stop  offset="0.6204" style="stop-color:#A9A9A9"/>
						<stop  offset="0.8782" style="stop-color:#E7E7E7"/>
						<stop  offset="1" style="stop-color:#FFFFFF"/>
					</linearGradient>
					<path class="st12" d="M27.9,55.11l26.08-11.03c-0.7,1.03-1.37,2.09-1.99,3.19L25.91,58.3C26.53,57.2,27.19,56.13,27.9,55.11"/>
					<linearGradient id="SVGID_17_" gradientUnits="userSpaceOnUse" x1="37.2235" y1="53.2817" x2="126.3013" y2="143.0896">
						<stop  offset="0" style="stop-color:#000000"/>
						<stop  offset="0.2511" style="stop-color:#474747"/>
						<stop  offset="0.6204" style="stop-color:#A9A9A9"/>
						<stop  offset="0.8782" style="stop-color:#E7E7E7"/>
						<stop  offset="1" style="stop-color:#FFFFFF"/>
					</linearGradient>
					<path class="st13" d="M25.91,58.3l26.08-11.03c-0.54,0.95-1.05,1.93-1.53,2.93L24.37,61.23C24.85,60.23,25.36,59.25,25.91,58.3
						"/>
					<linearGradient id="SVGID_18_" gradientUnits="userSpaceOnUse" x1="35.112" y1="55.3761" x2="124.1898" y2="145.184">
						<stop  offset="0" style="stop-color:#000000"/>
						<stop  offset="0.2511" style="stop-color:#474747"/>
						<stop  offset="0.6204" style="stop-color:#A9A9A9"/>
						<stop  offset="0.8782" style="stop-color:#E7E7E7"/>
						<stop  offset="1" style="stop-color:#FFFFFF"/>
					</linearGradient>
					<path class="st14" d="M24.37,61.23L50.45,50.2c-0.43,0.9-0.83,1.81-1.21,2.75L23.16,63.98C23.54,63.04,23.94,62.13,24.37,61.23
						"/>
					<linearGradient id="SVGID_19_" gradientUnits="userSpaceOnUse" x1="33.2124" y1="57.2603" x2="122.2902" y2="147.0682">
						<stop  offset="0" style="stop-color:#000000"/>
						<stop  offset="0.2511" style="stop-color:#474747"/>
						<stop  offset="0.6204" style="stop-color:#A9A9A9"/>
						<stop  offset="0.8782" style="stop-color:#E7E7E7"/>
						<stop  offset="1" style="stop-color:#FFFFFF"/>
					</linearGradient>
					<path class="st15" d="M23.16,63.98l26.08-11.03c-0.35,0.87-0.68,1.75-0.98,2.64L22.19,66.62
						C22.49,65.72,22.81,64.84,23.16,63.98"/>
					<linearGradient id="SVGID_20_" gradientUnits="userSpaceOnUse" x1="31.4477" y1="59.0106" x2="120.5255" y2="148.8185">
						<stop  offset="0" style="stop-color:#000000"/>
						<stop  offset="0.2511" style="stop-color:#474747"/>
						<stop  offset="0.6204" style="stop-color:#A9A9A9"/>
						<stop  offset="0.8782" style="stop-color:#E7E7E7"/>
						<stop  offset="1" style="stop-color:#FFFFFF"/>
					</linearGradient>
					<path class="st16" d="M22.19,66.62l26.08-11.03c-0.29,0.86-0.56,1.73-0.81,2.62L21.38,69.24
						C21.63,68.35,21.9,67.48,22.19,66.62"/>
					<linearGradient id="SVGID_21_" gradientUnits="userSpaceOnUse" x1="29.7759" y1="60.6689" x2="118.8536" y2="150.4768">
						<stop  offset="0" style="stop-color:#000000"/>
						<stop  offset="0.2511" style="stop-color:#474747"/>
						<stop  offset="0.6204" style="stop-color:#A9A9A9"/>
						<stop  offset="0.8782" style="stop-color:#E7E7E7"/>
						<stop  offset="1" style="stop-color:#FFFFFF"/>
					</linearGradient>
					<path class="st17" d="M21.38,69.24l26.08-11.03c-0.24,0.86-0.46,1.72-0.65,2.6L20.73,71.84
						C20.92,70.96,21.14,70.09,21.38,69.24"/>
					<linearGradient id="SVGID_22_" gradientUnits="userSpaceOnUse" x1="28.1885" y1="62.2433" x2="117.2663" y2="152.0512">
						<stop  offset="0" style="stop-color:#000000"/>
						<stop  offset="0.2511" style="stop-color:#474747"/>
						<stop  offset="0.6204" style="stop-color:#A9A9A9"/>
						<stop  offset="0.8782" style="stop-color:#E7E7E7"/>
						<stop  offset="1" style="stop-color:#FFFFFF"/>
					</linearGradient>
					<path class="st18" d="M20.73,71.84l26.08-11.03c-0.19,0.85-0.36,1.71-0.51,2.58L20.22,74.42
						C20.37,73.55,20.54,72.69,20.73,71.84"/>
					<linearGradient id="SVGID_23_" gradientUnits="userSpaceOnUse" x1="26.662" y1="63.7574" x2="115.7397" y2="153.5654">
						<stop  offset="0" style="stop-color:#000000"/>
						<stop  offset="0.2511" style="stop-color:#474747"/>
						<stop  offset="0.6204" style="stop-color:#A9A9A9"/>
						<stop  offset="0.8782" style="stop-color:#E7E7E7"/>
						<stop  offset="1" style="stop-color:#FFFFFF"/>
					</linearGradient>
					<path class="st19" d="M20.22,74.42L46.3,63.39c-0.15,0.87-0.28,1.74-0.38,2.63L19.84,77.05
						C19.94,76.16,20.07,75.28,20.22,74.42"/>
					<linearGradient id="SVGID_24_" gradientUnits="userSpaceOnUse" x1="25.1747" y1="65.2326" x2="114.2525" y2="155.0405">
						<stop  offset="0" style="stop-color:#000000"/>
						<stop  offset="0.2511" style="stop-color:#474747"/>
						<stop  offset="0.6204" style="stop-color:#A9A9A9"/>
						<stop  offset="0.8782" style="stop-color:#E7E7E7"/>
						<stop  offset="1" style="stop-color:#FFFFFF"/>
					</linearGradient>
					<path class="st20" d="M19.84,77.05l26.08-11.03c-0.11,0.88-0.19,1.77-0.26,2.67L19.58,79.72
						C19.64,78.82,19.73,77.93,19.84,77.05"/>
					<linearGradient id="SVGID_25_" gradientUnits="userSpaceOnUse" x1="23.7132" y1="66.6823" x2="112.7909" y2="156.4902">
						<stop  offset="0" style="stop-color:#000000"/>
						<stop  offset="0.2511" style="stop-color:#474747"/>
						<stop  offset="0.6204" style="stop-color:#A9A9A9"/>
						<stop  offset="0.8782" style="stop-color:#E7E7E7"/>
						<stop  offset="1" style="stop-color:#FFFFFF"/>
					</linearGradient>
					<path class="st21" d="M19.58,79.72l26.08-11.03c-0.07,0.92-0.11,1.84-0.13,2.78L19.44,82.5
						C19.47,81.56,19.51,80.64,19.58,79.72"/>
					<linearGradient id="SVGID_26_" gradientUnits="userSpaceOnUse" x1="22.2635" y1="68.1202" x2="111.3412" y2="157.9281">
						<stop  offset="0" style="stop-color:#000000"/>
						<stop  offset="0.2511" style="stop-color:#474747"/>
						<stop  offset="0.6204" style="stop-color:#A9A9A9"/>
						<stop  offset="0.8782" style="stop-color:#E7E7E7"/>
						<stop  offset="1" style="stop-color:#FFFFFF"/>
					</linearGradient>
					<path class="st22" d="M19.44,82.5l26.08-11.03c-0.01,0.6-0.02,1.21-0.01,1.82c0,0.36,0.01,0.72,0.02,1.07L19.45,85.39
						c-0.01-0.36-0.02-0.71-0.02-1.07C19.42,83.7,19.43,83.1,19.44,82.5"/>
					<linearGradient id="SVGID_27_" gradientUnits="userSpaceOnUse" x1="20.8346" y1="69.5375" x2="109.9124" y2="159.3454">
						<stop  offset="0" style="stop-color:#000000"/>
						<stop  offset="0.2511" style="stop-color:#474747"/>
						<stop  offset="0.6204" style="stop-color:#A9A9A9"/>
						<stop  offset="0.8782" style="stop-color:#E7E7E7"/>
						<stop  offset="1" style="stop-color:#FFFFFF"/>
					</linearGradient>
					<path class="st23" d="M19.45,85.39l26.08-11.03c0.03,1,0.08,1.99,0.15,2.98L19.6,88.37C19.52,87.38,19.47,86.38,19.45,85.39"/>
					<linearGradient id="SVGID_28_" gradientUnits="userSpaceOnUse" x1="19.4092" y1="70.9513" x2="108.487" y2="160.7592">
						<stop  offset="0" style="stop-color:#000000"/>
						<stop  offset="0.2511" style="stop-color:#474747"/>
						<stop  offset="0.6204" style="stop-color:#A9A9A9"/>
						<stop  offset="0.8782" style="stop-color:#E7E7E7"/>
						<stop  offset="1" style="stop-color:#FFFFFF"/>
					</linearGradient>
					<path class="st24" d="M19.6,88.37l26.08-11.03c0.08,1.07,0.19,2.14,0.33,3.21L19.93,91.58C19.79,90.51,19.68,89.44,19.6,88.37"
						/>
					<linearGradient id="SVGID_29_" gradientUnits="userSpaceOnUse" x1="17.9679" y1="72.3808" x2="107.0457" y2="162.1887">
						<stop  offset="0" style="stop-color:#000000"/>
						<stop  offset="0.2511" style="stop-color:#474747"/>
						<stop  offset="0.6204" style="stop-color:#A9A9A9"/>
						<stop  offset="0.8782" style="stop-color:#E7E7E7"/>
						<stop  offset="1" style="stop-color:#FFFFFF"/>
					</linearGradient>
					<path class="st25" d="M19.93,91.58l26.08-11.03c0.15,1.16,0.34,2.31,0.55,3.45L20.48,95.03
						C20.27,93.88,20.08,92.73,19.93,91.58"/>
					<linearGradient id="SVGID_30_" gradientUnits="userSpaceOnUse" x1="16.4968" y1="73.84" x2="105.5746" y2="163.6479">
						<stop  offset="0" style="stop-color:#000000"/>
						<stop  offset="0.2511" style="stop-color:#474747"/>
						<stop  offset="0.6204" style="stop-color:#A9A9A9"/>
						<stop  offset="0.8782" style="stop-color:#E7E7E7"/>
						<stop  offset="1" style="stop-color:#FFFFFF"/>
					</linearGradient>
					<path class="st26" d="M20.48,95.03l26.08-11.03c0.25,1.3,0.54,2.59,0.87,3.86L21.35,98.89C21.02,97.62,20.73,96.33,20.48,95.03
						"/>
					<linearGradient id="SVGID_31_" gradientUnits="userSpaceOnUse" x1="14.9362" y1="75.3879" x2="104.014" y2="165.1958">
						<stop  offset="0" style="stop-color:#000000"/>
						<stop  offset="0.2511" style="stop-color:#474747"/>
						<stop  offset="0.6204" style="stop-color:#A9A9A9"/>
						<stop  offset="0.8782" style="stop-color:#E7E7E7"/>
						<stop  offset="1" style="stop-color:#FFFFFF"/>
					</linearGradient>
					<path class="st27" d="M21.35,98.89l26.08-11.03c0.41,1.58,0.88,3.13,1.4,4.67l-26.08,11.03
						C22.23,102.02,21.76,100.47,21.35,98.89"/>
					<linearGradient id="SVGID_32_" gradientUnits="userSpaceOnUse" x1="13.0749" y1="77.2341" x2="102.1526" y2="167.042">
						<stop  offset="0" style="stop-color:#000000"/>
						<stop  offset="0.2511" style="stop-color:#474747"/>
						<stop  offset="0.6204" style="stop-color:#A9A9A9"/>
						<stop  offset="0.8782" style="stop-color:#E7E7E7"/>
						<stop  offset="1" style="stop-color:#FFFFFF"/>
					</linearGradient>
					<path class="st28" d="M22.75,103.56l26.08-11.03c0.85,2.48,1.86,4.9,3.01,7.23l-26.08,11.03
						C24.61,108.45,23.61,106.04,22.75,103.56"/>
					<linearGradient id="SVGID_33_" gradientUnits="userSpaceOnUse" x1="11.0749" y1="79.2178" x2="100.1527" y2="169.0257">
						<stop  offset="0" style="stop-color:#000000"/>
						<stop  offset="0.2511" style="stop-color:#474747"/>
						<stop  offset="0.6204" style="stop-color:#A9A9A9"/>
						<stop  offset="0.8782" style="stop-color:#E7E7E7"/>
						<stop  offset="1" style="stop-color:#FFFFFF"/>
					</linearGradient>
					<path class="st29" d="M25.76,110.78l26.08-11.03c1.75,3.55,3.81,6.91,6.16,10.01L31.92,120.8
						C29.57,117.69,27.51,114.33,25.76,110.78"/>
					<linearGradient id="SVGID_34_" gradientUnits="userSpaceOnUse" x1="9.9286" y1="80.3548" x2="99.0064" y2="170.1627">
						<stop  offset="0" style="stop-color:#000000"/>
						<stop  offset="0.2511" style="stop-color:#474747"/>
						<stop  offset="0.6204" style="stop-color:#A9A9A9"/>
						<stop  offset="0.8782" style="stop-color:#E7E7E7"/>
						<stop  offset="1" style="stop-color:#FFFFFF"/>
					</linearGradient>
					<path class="st30" d="M31.92,120.8L58,109.76c1.57,2.09,3.27,4.06,5.08,5.9l-26.08,11.03
						C35.19,124.85,33.49,122.88,31.92,120.8"/>
					<linearGradient id="SVGID_35_" gradientUnits="userSpaceOnUse" x1="9.794" y1="80.4883" x2="98.8718" y2="170.2962">
						<stop  offset="0" style="stop-color:#000000"/>
						<stop  offset="0.2511" style="stop-color:#474747"/>
						<stop  offset="0.6204" style="stop-color:#A9A9A9"/>
						<stop  offset="0.8782" style="stop-color:#E7E7E7"/>
						<stop  offset="1" style="stop-color:#FFFFFF"/>
					</linearGradient>
					<path class="st31" d="M36.99,126.69l26.08-11.03c1.12,1.14,2.29,2.24,3.49,3.28l-26.08,11.03
						C39.28,128.93,38.12,127.84,36.99,126.69"/>
					<linearGradient id="SVGID_36_" gradientUnits="userSpaceOnUse" x1="10.0085" y1="80.2755" x2="99.0863" y2="170.0835">
						<stop  offset="0" style="stop-color:#000000"/>
						<stop  offset="0.2511" style="stop-color:#474747"/>
						<stop  offset="0.6204" style="stop-color:#A9A9A9"/>
						<stop  offset="0.8782" style="stop-color:#E7E7E7"/>
						<stop  offset="1" style="stop-color:#FFFFFF"/>
					</linearGradient>
					<path class="st32" d="M40.49,129.97l26.08-11.03c0.98,0.85,1.99,1.66,3.02,2.43L43.5,132.4
						C42.47,131.63,41.47,130.82,40.49,129.97"/>
					<linearGradient id="SVGID_37_" gradientUnits="userSpaceOnUse" x1="10.3738" y1="79.9132" x2="99.4515" y2="169.7211">
						<stop  offset="0" style="stop-color:#000000"/>
						<stop  offset="0.2511" style="stop-color:#474747"/>
						<stop  offset="0.6204" style="stop-color:#A9A9A9"/>
						<stop  offset="0.8782" style="stop-color:#E7E7E7"/>
						<stop  offset="1" style="stop-color:#FFFFFF"/>
					</linearGradient>
					<path class="st33" d="M43.5,132.4l26.08-11.03c0.9,0.68,1.82,1.32,2.76,1.94l-26.08,11.03
						C45.33,133.72,44.41,133.08,43.5,132.4"/>
					<linearGradient id="SVGID_38_" gradientUnits="userSpaceOnUse" x1="10.843" y1="79.4478" x2="99.9208" y2="169.2557">
						<stop  offset="0" style="stop-color:#000000"/>
						<stop  offset="0.2511" style="stop-color:#474747"/>
						<stop  offset="0.6204" style="stop-color:#A9A9A9"/>
						<stop  offset="0.8782" style="stop-color:#E7E7E7"/>
						<stop  offset="1" style="stop-color:#FFFFFF"/>
					</linearGradient>
					<path class="st34" d="M46.27,134.34l26.08-11.03c0.86,0.56,1.73,1.1,2.62,1.61l-26.08,11.03
						C48,135.44,47.12,134.9,46.27,134.34"/>
					<linearGradient id="SVGID_39_" gradientUnits="userSpaceOnUse" x1="11.3913" y1="78.9039" x2="100.4691" y2="168.7119">
						<stop  offset="0" style="stop-color:#000000"/>
						<stop  offset="0.2511" style="stop-color:#474747"/>
						<stop  offset="0.6204" style="stop-color:#A9A9A9"/>
						<stop  offset="0.8782" style="stop-color:#E7E7E7"/>
						<stop  offset="1" style="stop-color:#FFFFFF"/>
					</linearGradient>
					<path class="st35" d="M48.88,135.95l26.08-11.03c0.82,0.47,1.64,0.91,2.48,1.34l-26.08,11.03
						C50.52,136.86,49.7,136.42,48.88,135.95"/>
					<linearGradient id="SVGID_40_" gradientUnits="userSpaceOnUse" x1="12.009" y1="78.2913" x2="101.0868" y2="168.0992">
						<stop  offset="0" style="stop-color:#000000"/>
						<stop  offset="0.2511" style="stop-color:#474747"/>
						<stop  offset="0.6204" style="stop-color:#A9A9A9"/>
						<stop  offset="0.8782" style="stop-color:#E7E7E7"/>
						<stop  offset="1" style="stop-color:#FFFFFF"/>
					</linearGradient>
					<path class="st36" d="M51.36,137.28l26.08-11.03c0.8,0.4,1.61,0.78,2.43,1.14l-26.08,11.03
						C52.97,138.07,52.16,137.69,51.36,137.28"/>
					<linearGradient id="SVGID_41_" gradientUnits="userSpaceOnUse" x1="12.6998" y1="77.6061" x2="101.7776" y2="167.414">
						<stop  offset="0" style="stop-color:#000000"/>
						<stop  offset="0.2511" style="stop-color:#474747"/>
						<stop  offset="0.6204" style="stop-color:#A9A9A9"/>
						<stop  offset="0.8782" style="stop-color:#E7E7E7"/>
						<stop  offset="1" style="stop-color:#FFFFFF"/>
					</linearGradient>
					<path class="st37" d="M53.79,138.42l26.08-11.03c0.8,0.35,1.6,0.68,2.42,0.98l-26.08,11.03
						C55.39,139.1,54.59,138.77,53.79,138.42"/>
					<linearGradient id="SVGID_42_" gradientUnits="userSpaceOnUse" x1="13.4614" y1="76.8507" x2="102.5391" y2="166.6587">
						<stop  offset="0" style="stop-color:#000000"/>
						<stop  offset="0.2511" style="stop-color:#474747"/>
						<stop  offset="0.6204" style="stop-color:#A9A9A9"/>
						<stop  offset="0.8782" style="stop-color:#E7E7E7"/>
						<stop  offset="1" style="stop-color:#FFFFFF"/>
					</linearGradient>
					<path class="st38" d="M56.21,139.41l26.08-11.03c0.79,0.3,1.59,0.57,2.4,0.82L58.6,140.23C57.8,139.98,57,139.7,56.21,139.41"
						/>
					<linearGradient id="SVGID_43_" gradientUnits="userSpaceOnUse" x1="14.2969" y1="76.0219" x2="103.3747" y2="165.8299">
						<stop  offset="0" style="stop-color:#000000"/>
						<stop  offset="0.2511" style="stop-color:#474747"/>
						<stop  offset="0.6204" style="stop-color:#A9A9A9"/>
						<stop  offset="0.8782" style="stop-color:#E7E7E7"/>
						<stop  offset="1" style="stop-color:#FFFFFF"/>
					</linearGradient>
					<path class="st39" d="M58.6,140.23l26.08-11.03c0.8,0.25,1.61,0.48,2.42,0.69l-26.08,11.03
						C60.21,140.71,59.4,140.48,58.6,140.23"/>
					<linearGradient id="SVGID_44_" gradientUnits="userSpaceOnUse" x1="15.216" y1="75.1104" x2="104.2937" y2="164.9183">
						<stop  offset="0" style="stop-color:#000000"/>
						<stop  offset="0.2511" style="stop-color:#474747"/>
						<stop  offset="0.6204" style="stop-color:#A9A9A9"/>
						<stop  offset="0.8782" style="stop-color:#E7E7E7"/>
						<stop  offset="1" style="stop-color:#FFFFFF"/>
					</linearGradient>
					<path class="st40" d="M61.03,140.92l26.08-11.03c0.81,0.21,1.63,0.39,2.46,0.56l-26.08,11.03
						C62.66,141.31,61.84,141.13,61.03,140.92"/>
					<linearGradient id="SVGID_45_" gradientUnits="userSpaceOnUse" x1="16.2309" y1="74.1037" x2="105.3086" y2="163.9117">
						<stop  offset="0" style="stop-color:#000000"/>
						<stop  offset="0.2511" style="stop-color:#474747"/>
						<stop  offset="0.6204" style="stop-color:#A9A9A9"/>
						<stop  offset="0.8782" style="stop-color:#E7E7E7"/>
						<stop  offset="1" style="stop-color:#FFFFFF"/>
					</linearGradient>
					<path class="st41" d="M63.49,141.48l26.08-11.03c0.84,0.17,1.69,0.31,2.54,0.42L66.03,141.9
						C65.17,141.78,64.33,141.64,63.49,141.48"/>
					<linearGradient id="SVGID_46_" gradientUnits="userSpaceOnUse" x1="16.9825" y1="73.3583" x2="106.0602" y2="163.1662">
						<stop  offset="0" style="stop-color:#000000"/>
						<stop  offset="0.2511" style="stop-color:#474747"/>
						<stop  offset="0.6204" style="stop-color:#A9A9A9"/>
						<stop  offset="0.8782" style="stop-color:#E7E7E7"/>
						<stop  offset="1" style="stop-color:#FFFFFF"/>
					</linearGradient>
					<path class="st42" d="M66.03,141.9l26.08-11.03c0.33,0.05,0.66,0.09,0.99,0.12l-26.08,11.03
						C66.68,141.99,66.35,141.95,66.03,141.9"/>
				</g>
			</g>
		</g>
	</g>
	<g>
		<defs>
			<path id="SVGID_47_" d="M38.12,22.12L64.2,11.09c8.44-3.57,17.93-5.03,27.96-3.88L66.09,18.25
				C56.05,17.1,46.57,18.55,38.12,22.12z"/>
		</defs>
		<use xlink:href="#SVGID_47_"  style="overflow:visible;"/>
		<clipPath id="SVGID_48_">
			<use xlink:href="#SVGID_47_"  style="overflow:visible;"/>
		</clipPath>
		<g class="st43">
			<path d="M38.12,22.12L64.2,11.09c1.03-0.44,2.08-0.84,3.14-1.21L41.26,20.91C40.2,21.28,39.15,21.69,38.12,22.12"/>
			<path d="M41.26,20.91L67.34,9.88c1.9-0.67,3.84-1.23,5.82-1.68L47.08,19.23C45.1,19.69,43.16,20.25,41.26,20.91"/>
			<path d="M47.08,19.23L73.16,8.2c1.58-0.36,3.19-0.65,4.82-0.87L51.9,18.36C50.27,18.58,48.66,18.87,47.08,19.23"/>
			<path d="M51.9,18.36L77.98,7.33c1.41-0.19,2.84-0.33,4.29-0.41L56.19,17.95C54.74,18.03,53.31,18.17,51.9,18.36"/>
			<path d="M56.19,17.95L82.27,6.92c1.29-0.07,2.6-0.1,3.92-0.09L60.11,17.87C58.79,17.85,57.48,17.88,56.19,17.95"/>
			<path d="M60.11,17.87L86.19,6.83C87.42,6.85,88.65,6.9,89.9,7L63.82,18.03C62.57,17.94,61.34,17.88,60.11,17.87"/>
			<path d="M63.82,18.03L89.9,7c0.75,0.06,1.51,0.13,2.27,0.22L66.09,18.25C65.33,18.16,64.57,18.09,63.82,18.03"/>
		</g>
	</g>
	<g>
		<defs>
			<path id="SVGID_49_" d="M121.19,146.33l-26.08,11.03c21.5-9.09,36.24-31.9,36.03-60.21c-0.3-39.42-29.48-74.81-65.05-78.9
				L92.17,7.22c35.58,4.09,64.76,39.48,65.05,78.9C157.43,114.43,142.69,137.23,121.19,146.33z"/>
		</defs>
		<linearGradient id="SVGID_50_" gradientUnits="userSpaceOnUse" x1="56.2645" y1="34.3955" x2="145.3423" y2="124.2035">
			<stop  offset="0" style="stop-color:#000000"/>
			<stop  offset="0.2511" style="stop-color:#474747"/>
			<stop  offset="0.6204" style="stop-color:#A9A9A9"/>
			<stop  offset="0.8782" style="stop-color:#E7E7E7"/>
			<stop  offset="1" style="stop-color:#FFFFFF"/>
		</linearGradient>
		<use xlink:href="#SVGID_49_"  style="overflow:visible;fill:url(#SVGID_50_);"/>
		<clipPath id="SVGID_51_">
			<use xlink:href="#SVGID_49_"  style="overflow:visible;"/>
		</clipPath>
		<g class="st44">
			<linearGradient id="SVGID_52_" gradientUnits="userSpaceOnUse" x1="78.9174" y1="11.9269" x2="167.9951" y2="101.7348">
				<stop  offset="0" style="stop-color:#000000"/>
				<stop  offset="0.2511" style="stop-color:#474747"/>
				<stop  offset="0.6204" style="stop-color:#A9A9A9"/>
				<stop  offset="0.8782" style="stop-color:#E7E7E7"/>
				<stop  offset="1" style="stop-color:#FFFFFF"/>
			</linearGradient>
			<path class="st45" d="M66.09,18.25L92.17,7.22c0.45,0.05,0.9,0.11,1.35,0.17L67.44,18.42C66.99,18.36,66.54,18.3,66.09,18.25"/>
			<linearGradient id="SVGID_53_" gradientUnits="userSpaceOnUse" x1="79.9455" y1="10.9071" x2="169.0233" y2="100.715">
				<stop  offset="0" style="stop-color:#000000"/>
				<stop  offset="0.2511" style="stop-color:#474747"/>
				<stop  offset="0.6204" style="stop-color:#A9A9A9"/>
				<stop  offset="0.8782" style="stop-color:#E7E7E7"/>
				<stop  offset="1" style="stop-color:#FFFFFF"/>
			</linearGradient>
			<path class="st46" d="M67.44,18.42L93.52,7.39c1.17,0.16,2.32,0.35,3.47,0.58L70.91,19C69.76,18.77,68.6,18.58,67.44,18.42"/>
			<linearGradient id="SVGID_54_" gradientUnits="userSpaceOnUse" x1="81.3338" y1="9.5301" x2="170.4116" y2="99.338">
				<stop  offset="0" style="stop-color:#000000"/>
				<stop  offset="0.2511" style="stop-color:#474747"/>
				<stop  offset="0.6204" style="stop-color:#A9A9A9"/>
				<stop  offset="0.8782" style="stop-color:#E7E7E7"/>
				<stop  offset="1" style="stop-color:#FFFFFF"/>
			</linearGradient>
			<path class="st47" d="M70.91,19L96.99,7.97c1.13,0.22,2.25,0.48,3.37,0.76L74.28,19.76C73.16,19.48,72.04,19.22,70.91,19"/>
			<linearGradient id="SVGID_55_" gradientUnits="userSpaceOnUse" x1="82.5908" y1="8.2833" x2="171.6686" y2="98.0912">
				<stop  offset="0" style="stop-color:#000000"/>
				<stop  offset="0.2511" style="stop-color:#474747"/>
				<stop  offset="0.6204" style="stop-color:#A9A9A9"/>
				<stop  offset="0.8782" style="stop-color:#E7E7E7"/>
				<stop  offset="1" style="stop-color:#FFFFFF"/>
			</linearGradient>
			<path class="st48" d="M74.28,19.76l26.08-11.03c1.11,0.28,2.22,0.6,3.31,0.94L77.59,20.7C76.49,20.36,75.39,20.05,74.28,19.76"/>
			<linearGradient id="SVGID_56_" gradientUnits="userSpaceOnUse" x1="83.7336" y1="7.1498" x2="172.8114" y2="96.9577">
				<stop  offset="0" style="stop-color:#000000"/>
				<stop  offset="0.2511" style="stop-color:#474747"/>
				<stop  offset="0.6204" style="stop-color:#A9A9A9"/>
				<stop  offset="0.8782" style="stop-color:#E7E7E7"/>
				<stop  offset="1" style="stop-color:#FFFFFF"/>
			</linearGradient>
			<path class="st49" d="M77.59,20.7l26.08-11.03c1.1,0.35,2.19,0.72,3.28,1.13L80.86,21.83C79.78,21.43,78.69,21.05,77.59,20.7"/>
			<linearGradient id="SVGID_57_" gradientUnits="userSpaceOnUse" x1="84.775" y1="6.1169" x2="173.8528" y2="95.9248">
				<stop  offset="0" style="stop-color:#000000"/>
				<stop  offset="0.2511" style="stop-color:#474747"/>
				<stop  offset="0.6204" style="stop-color:#A9A9A9"/>
				<stop  offset="0.8782" style="stop-color:#E7E7E7"/>
				<stop  offset="1" style="stop-color:#FFFFFF"/>
			</linearGradient>
			<path class="st50" d="M80.86,21.83l26.08-11.03c1.11,0.42,2.21,0.86,3.3,1.34L84.17,23.17C83.08,22.7,81.98,22.25,80.86,21.83"/>
			<linearGradient id="SVGID_58_" gradientUnits="userSpaceOnUse" x1="85.7196" y1="5.18" x2="174.7974" y2="94.9879">
				<stop  offset="0" style="stop-color:#000000"/>
				<stop  offset="0.2511" style="stop-color:#474747"/>
				<stop  offset="0.6204" style="stop-color:#A9A9A9"/>
				<stop  offset="0.8782" style="stop-color:#E7E7E7"/>
				<stop  offset="1" style="stop-color:#FFFFFF"/>
			</linearGradient>
			<path class="st51" d="M84.17,23.17l26.08-11.03c1.12,0.49,2.23,1.01,3.32,1.56L87.49,24.74C86.4,24.18,85.29,23.66,84.17,23.17"
				/>
			<linearGradient id="SVGID_59_" gradientUnits="userSpaceOnUse" x1="86.5641" y1="4.3424" x2="175.6418" y2="94.1503">
				<stop  offset="0" style="stop-color:#000000"/>
				<stop  offset="0.2511" style="stop-color:#474747"/>
				<stop  offset="0.6204" style="stop-color:#A9A9A9"/>
				<stop  offset="0.8782" style="stop-color:#E7E7E7"/>
				<stop  offset="1" style="stop-color:#FFFFFF"/>
			</linearGradient>
			<path class="st52" d="M87.49,24.74l26.08-11.03c1.14,0.58,2.27,1.19,3.39,1.83L90.88,26.56C89.77,25.92,88.64,25.31,87.49,24.74"
				/>
			<linearGradient id="SVGID_60_" gradientUnits="userSpaceOnUse" x1="87.3136" y1="3.5989" x2="176.3914" y2="93.4068">
				<stop  offset="0" style="stop-color:#000000"/>
				<stop  offset="0.2511" style="stop-color:#474747"/>
				<stop  offset="0.6204" style="stop-color:#A9A9A9"/>
				<stop  offset="0.8782" style="stop-color:#E7E7E7"/>
				<stop  offset="1" style="stop-color:#FFFFFF"/>
			</linearGradient>
			<path class="st53" d="M90.88,26.56l26.08-11.03c1.21,0.7,2.4,1.43,3.58,2.2L94.46,28.76C93.29,27.99,92.09,27.26,90.88,26.56"/>
			<linearGradient id="SVGID_61_" gradientUnits="userSpaceOnUse" x1="87.9551" y1="2.9626" x2="177.0329" y2="92.7705">
				<stop  offset="0" style="stop-color:#000000"/>
				<stop  offset="0.2511" style="stop-color:#474747"/>
				<stop  offset="0.6204" style="stop-color:#A9A9A9"/>
				<stop  offset="0.8782" style="stop-color:#E7E7E7"/>
				<stop  offset="1" style="stop-color:#FFFFFF"/>
			</linearGradient>
			<path class="st54" d="M94.46,28.76l26.08-11.03c1.28,0.84,2.54,1.72,3.78,2.65L98.24,31.41C97,30.49,95.74,29.6,94.46,28.76"/>
			<linearGradient id="SVGID_62_" gradientUnits="userSpaceOnUse" x1="88.4544" y1="2.4674" x2="177.5322" y2="92.2753">
				<stop  offset="0" style="stop-color:#000000"/>
				<stop  offset="0.2511" style="stop-color:#474747"/>
				<stop  offset="0.6204" style="stop-color:#A9A9A9"/>
				<stop  offset="0.8782" style="stop-color:#E7E7E7"/>
				<stop  offset="1" style="stop-color:#FFFFFF"/>
			</linearGradient>
			<path class="st55" d="M98.24,31.41l26.08-11.03c1.41,1.05,2.78,2.16,4.12,3.32l-26.08,11.03
				C101.02,33.57,99.64,32.46,98.24,31.41"/>
			<linearGradient id="SVGID_63_" gradientUnits="userSpaceOnUse" x1="88.7475" y1="2.1767" x2="177.8253" y2="91.9846">
				<stop  offset="0" style="stop-color:#000000"/>
				<stop  offset="0.2511" style="stop-color:#474747"/>
				<stop  offset="0.6204" style="stop-color:#A9A9A9"/>
				<stop  offset="0.8782" style="stop-color:#E7E7E7"/>
				<stop  offset="1" style="stop-color:#FFFFFF"/>
			</linearGradient>
			<path class="st56" d="M102.36,34.73l26.08-11.03c1.65,1.42,3.24,2.92,4.77,4.48l-26.08,11.03C105.6,37.64,104,36.15,102.36,34.73
				"/>
			<linearGradient id="SVGID_64_" gradientUnits="userSpaceOnUse" x1="88.5636" y1="2.3591" x2="177.6413" y2="92.167">
				<stop  offset="0" style="stop-color:#000000"/>
				<stop  offset="0.2511" style="stop-color:#474747"/>
				<stop  offset="0.6204" style="stop-color:#A9A9A9"/>
				<stop  offset="0.8782" style="stop-color:#E7E7E7"/>
				<stop  offset="1" style="stop-color:#FFFFFF"/>
			</linearGradient>
			<path class="st57" d="M107.13,39.21l26.08-11.03c2.47,2.52,4.79,5.21,6.94,8.06l-26.08,11.03
				C111.92,44.42,109.6,41.72,107.13,39.21"/>
			<linearGradient id="SVGID_65_" gradientUnits="userSpaceOnUse" x1="86.9969" y1="3.913" x2="176.0747" y2="93.7209">
				<stop  offset="0" style="stop-color:#000000"/>
				<stop  offset="0.2511" style="stop-color:#474747"/>
				<stop  offset="0.6204" style="stop-color:#A9A9A9"/>
				<stop  offset="0.8782" style="stop-color:#E7E7E7"/>
				<stop  offset="1" style="stop-color:#FFFFFF"/>
			</linearGradient>
			<path class="st58" d="M114.07,47.27l26.08-11.03c3.2,4.25,6.03,8.83,8.42,13.69l-26.08,11.03
				C120.1,56.1,117.27,51.51,114.07,47.27"/>
			<linearGradient id="SVGID_66_" gradientUnits="userSpaceOnUse" x1="84.2632" y1="6.6245" x2="173.341" y2="96.4324">
				<stop  offset="0" style="stop-color:#000000"/>
				<stop  offset="0.2511" style="stop-color:#474747"/>
				<stop  offset="0.6204" style="stop-color:#A9A9A9"/>
				<stop  offset="0.8782" style="stop-color:#E7E7E7"/>
				<stop  offset="1" style="stop-color:#FFFFFF"/>
			</linearGradient>
			<path class="st59" d="M122.48,60.95l26.08-11.03c1.57,3.19,2.94,6.49,4.11,9.88L126.6,70.83
				C125.43,67.44,124.05,64.14,122.48,60.95"/>
			<linearGradient id="SVGID_67_" gradientUnits="userSpaceOnUse" x1="81.7186" y1="9.1485" x2="170.7963" y2="98.9564">
				<stop  offset="0" style="stop-color:#000000"/>
				<stop  offset="0.2511" style="stop-color:#474747"/>
				<stop  offset="0.6204" style="stop-color:#A9A9A9"/>
				<stop  offset="0.8782" style="stop-color:#E7E7E7"/>
				<stop  offset="1" style="stop-color:#FFFFFF"/>
			</linearGradient>
			<path class="st60" d="M126.6,70.83l26.08-11.03c0.72,2.09,1.36,4.22,1.92,6.38l-26.08,11.03
				C127.96,75.05,127.32,72.93,126.6,70.83"/>
			<linearGradient id="SVGID_68_" gradientUnits="userSpaceOnUse" x1="79.5847" y1="11.265" x2="168.6625" y2="101.0729">
				<stop  offset="0" style="stop-color:#000000"/>
				<stop  offset="0.2511" style="stop-color:#474747"/>
				<stop  offset="0.6204" style="stop-color:#A9A9A9"/>
				<stop  offset="0.8782" style="stop-color:#E7E7E7"/>
				<stop  offset="1" style="stop-color:#FFFFFF"/>
			</linearGradient>
			<path class="st61" d="M128.51,77.21l26.08-11.03c0.45,1.74,0.85,3.51,1.18,5.28L129.7,82.5
				C129.36,80.72,128.96,78.96,128.51,77.21"/>
			<linearGradient id="SVGID_69_" gradientUnits="userSpaceOnUse" x1="77.5729" y1="13.2605" x2="166.6506" y2="103.0684">
				<stop  offset="0" style="stop-color:#000000"/>
				<stop  offset="0.2511" style="stop-color:#474747"/>
				<stop  offset="0.6204" style="stop-color:#A9A9A9"/>
				<stop  offset="0.8782" style="stop-color:#E7E7E7"/>
				<stop  offset="1" style="stop-color:#FFFFFF"/>
			</linearGradient>
			<path class="st62" d="M129.7,82.5l26.08-11.03c0.3,1.56,0.55,3.13,0.76,4.72l-26.08,11.03C130.25,85.63,129.99,84.06,129.7,82.5"
				/>
			<linearGradient id="SVGID_70_" gradientUnits="userSpaceOnUse" x1="75.6016" y1="15.2157" x2="164.6794" y2="105.0236">
				<stop  offset="0" style="stop-color:#000000"/>
				<stop  offset="0.2511" style="stop-color:#474747"/>
				<stop  offset="0.6204" style="stop-color:#A9A9A9"/>
				<stop  offset="0.8782" style="stop-color:#E7E7E7"/>
				<stop  offset="1" style="stop-color:#FFFFFF"/>
			</linearGradient>
			<path class="st63" d="M130.45,87.22l26.08-11.03c0.19,1.45,0.34,2.92,0.45,4.39L130.91,91.6
				C130.79,90.13,130.64,88.67,130.45,87.22"/>
			<linearGradient id="SVGID_71_" gradientUnits="userSpaceOnUse" x1="73.6519" y1="17.1496" x2="162.7296" y2="106.9575">
				<stop  offset="0" style="stop-color:#000000"/>
				<stop  offset="0.2511" style="stop-color:#474747"/>
				<stop  offset="0.6204" style="stop-color:#A9A9A9"/>
				<stop  offset="0.8782" style="stop-color:#E7E7E7"/>
				<stop  offset="1" style="stop-color:#FFFFFF"/>
			</linearGradient>
			<path class="st64" d="M130.91,91.6l26.08-11.03c0.1,1.35,0.17,2.71,0.21,4.08l-26.08,11.03
				C131.08,94.32,131.01,92.96,130.91,91.6"/>
			<linearGradient id="SVGID_72_" gradientUnits="userSpaceOnUse" x1="71.6972" y1="19.0884" x2="160.7749" y2="108.8963">
				<stop  offset="0" style="stop-color:#000000"/>
				<stop  offset="0.2511" style="stop-color:#474747"/>
				<stop  offset="0.6204" style="stop-color:#A9A9A9"/>
				<stop  offset="0.8782" style="stop-color:#E7E7E7"/>
				<stop  offset="1" style="stop-color:#FFFFFF"/>
			</linearGradient>
			<path class="st65" d="M131.11,95.68l26.08-11.03c0.01,0.49,0.02,0.98,0.02,1.47c0.01,0.83,0,1.66-0.02,2.49l-26.08,11.03
				c0.02-0.82,0.03-1.65,0.02-2.49C131.14,96.66,131.13,96.17,131.11,95.68"/>
			<linearGradient id="SVGID_73_" gradientUnits="userSpaceOnUse" x1="69.7139" y1="21.0556" x2="158.7917" y2="110.8635">
				<stop  offset="0" style="stop-color:#000000"/>
				<stop  offset="0.2511" style="stop-color:#474747"/>
				<stop  offset="0.6204" style="stop-color:#A9A9A9"/>
				<stop  offset="0.8782" style="stop-color:#E7E7E7"/>
				<stop  offset="1" style="stop-color:#FFFFFF"/>
			</linearGradient>
			<path class="st66" d="M131.12,99.63L157.2,88.6c-0.03,1.28-0.09,2.55-0.18,3.8l-26.08,11.03
				C131.03,102.18,131.09,100.91,131.12,99.63"/>
			<linearGradient id="SVGID_74_" gradientUnits="userSpaceOnUse" x1="67.7144" y1="23.0388" x2="156.7921" y2="112.8467">
				<stop  offset="0" style="stop-color:#000000"/>
				<stop  offset="0.2511" style="stop-color:#474747"/>
				<stop  offset="0.6204" style="stop-color:#A9A9A9"/>
				<stop  offset="0.8782" style="stop-color:#E7E7E7"/>
				<stop  offset="1" style="stop-color:#FFFFFF"/>
			</linearGradient>
			<path class="st67" d="M130.94,103.44l26.08-11.03c-0.09,1.23-0.21,2.45-0.35,3.66l-26.08,11.03
				C130.73,105.89,130.85,104.67,130.94,103.44"/>
			<linearGradient id="SVGID_75_" gradientUnits="userSpaceOnUse" x1="65.6797" y1="25.0569" x2="154.7575" y2="114.8648">
				<stop  offset="0" style="stop-color:#000000"/>
				<stop  offset="0.2511" style="stop-color:#474747"/>
				<stop  offset="0.6204" style="stop-color:#A9A9A9"/>
				<stop  offset="0.8782" style="stop-color:#E7E7E7"/>
				<stop  offset="1" style="stop-color:#FFFFFF"/>
			</linearGradient>
			<path class="st68" d="M130.58,107.09l26.08-11.03c-0.15,1.21-0.32,2.41-0.53,3.6l-26.08,11.03
				C130.26,109.5,130.44,108.3,130.58,107.09"/>
			<linearGradient id="SVGID_76_" gradientUnits="userSpaceOnUse" x1="63.5912" y1="27.1284" x2="152.669" y2="116.9363">
				<stop  offset="0" style="stop-color:#000000"/>
				<stop  offset="0.2511" style="stop-color:#474747"/>
				<stop  offset="0.6204" style="stop-color:#A9A9A9"/>
				<stop  offset="0.8782" style="stop-color:#E7E7E7"/>
				<stop  offset="1" style="stop-color:#FFFFFF"/>
			</linearGradient>
			<path class="st69" d="M130.06,110.69l26.08-11.03c-0.2,1.19-0.44,2.37-0.7,3.53l-26.08,11.03
				C129.62,113.05,129.85,111.88,130.06,110.69"/>
			<linearGradient id="SVGID_77_" gradientUnits="userSpaceOnUse" x1="61.4198" y1="29.2822" x2="150.4976" y2="119.0901">
				<stop  offset="0" style="stop-color:#000000"/>
				<stop  offset="0.2511" style="stop-color:#474747"/>
				<stop  offset="0.6204" style="stop-color:#A9A9A9"/>
				<stop  offset="0.8782" style="stop-color:#E7E7E7"/>
				<stop  offset="1" style="stop-color:#FFFFFF"/>
			</linearGradient>
			<path class="st70" d="M129.36,114.22l26.08-11.03c-0.27,1.2-0.57,2.39-0.89,3.56l-26.08,11.03
				C128.8,116.6,129.09,115.42,129.36,114.22"/>
			<linearGradient id="SVGID_78_" gradientUnits="userSpaceOnUse" x1="59.1328" y1="31.5506" x2="148.2106" y2="121.3585">
				<stop  offset="0" style="stop-color:#000000"/>
				<stop  offset="0.2511" style="stop-color:#474747"/>
				<stop  offset="0.6204" style="stop-color:#A9A9A9"/>
				<stop  offset="0.8782" style="stop-color:#E7E7E7"/>
				<stop  offset="1" style="stop-color:#FFFFFF"/>
			</linearGradient>
			<path class="st71" d="M128.47,117.77l26.08-11.03c-0.34,1.21-0.71,2.41-1.1,3.58l-26.08,11.03
				C127.77,120.18,128.13,118.99,128.47,117.77"/>
			<linearGradient id="SVGID_79_" gradientUnits="userSpaceOnUse" x1="56.7187" y1="33.9451" x2="145.7964" y2="123.753">
				<stop  offset="0" style="stop-color:#000000"/>
				<stop  offset="0.2511" style="stop-color:#474747"/>
				<stop  offset="0.6204" style="stop-color:#A9A9A9"/>
				<stop  offset="0.8782" style="stop-color:#E7E7E7"/>
				<stop  offset="1" style="stop-color:#FFFFFF"/>
			</linearGradient>
			<path class="st72" d="M127.37,121.35l26.08-11.03c-0.41,1.23-0.86,2.43-1.34,3.62l-26.08,11.03
				C126.51,123.79,126.95,122.58,127.37,121.35"/>
			<linearGradient id="SVGID_80_" gradientUnits="userSpaceOnUse" x1="54.1205" y1="36.5222" x2="143.1983" y2="126.3301">
				<stop  offset="0" style="stop-color:#000000"/>
				<stop  offset="0.2511" style="stop-color:#474747"/>
				<stop  offset="0.6204" style="stop-color:#A9A9A9"/>
				<stop  offset="0.8782" style="stop-color:#E7E7E7"/>
				<stop  offset="1" style="stop-color:#FFFFFF"/>
			</linearGradient>
			<path class="st73" d="M126.03,124.97l26.08-11.03c-0.52,1.28-1.07,2.53-1.65,3.76l-26.08,11.03
				C124.96,127.5,125.51,126.25,126.03,124.97"/>
			<linearGradient id="SVGID_81_" gradientUnits="userSpaceOnUse" x1="51.2328" y1="39.3864" x2="140.3105" y2="129.1943">
				<stop  offset="0" style="stop-color:#000000"/>
				<stop  offset="0.2511" style="stop-color:#474747"/>
				<stop  offset="0.6204" style="stop-color:#A9A9A9"/>
				<stop  offset="0.8782" style="stop-color:#E7E7E7"/>
				<stop  offset="1" style="stop-color:#FFFFFF"/>
			</linearGradient>
			<path class="st74" d="M124.38,128.73l26.08-11.03c-0.66,1.37-1.35,2.71-2.1,4.01l-26.08,11.03
				C123.02,131.44,123.72,130.1,124.38,128.73"/>
			<linearGradient id="SVGID_82_" gradientUnits="userSpaceOnUse" x1="47.9262" y1="42.6661" x2="137.004" y2="132.474">
				<stop  offset="0" style="stop-color:#000000"/>
				<stop  offset="0.2511" style="stop-color:#474747"/>
				<stop  offset="0.6204" style="stop-color:#A9A9A9"/>
				<stop  offset="0.8782" style="stop-color:#E7E7E7"/>
				<stop  offset="1" style="stop-color:#FFFFFF"/>
			</linearGradient>
			<path class="st75" d="M122.28,132.74l26.08-11.03c-0.85,1.5-1.76,2.95-2.72,4.36l-26.08,11.03
				C120.52,135.7,121.43,134.24,122.28,132.74"/>
			<linearGradient id="SVGID_83_" gradientUnits="userSpaceOnUse" x1="43.8979" y1="46.6617" x2="132.9756" y2="136.4696">
				<stop  offset="0" style="stop-color:#000000"/>
				<stop  offset="0.2511" style="stop-color:#474747"/>
				<stop  offset="0.6204" style="stop-color:#A9A9A9"/>
				<stop  offset="0.8782" style="stop-color:#E7E7E7"/>
				<stop  offset="1" style="stop-color:#FFFFFF"/>
			</linearGradient>
			<path class="st76" d="M119.56,137.1l26.08-11.03c-1.22,1.78-2.51,3.47-3.89,5.09l-26.08,11.03
				C117.04,140.57,118.34,138.88,119.56,137.1"/>
			<linearGradient id="SVGID_84_" gradientUnits="userSpaceOnUse" x1="32.6716" y1="57.7967" x2="121.7494" y2="147.6046">
				<stop  offset="0" style="stop-color:#000000"/>
				<stop  offset="0.2511" style="stop-color:#474747"/>
				<stop  offset="0.6204" style="stop-color:#A9A9A9"/>
				<stop  offset="0.8782" style="stop-color:#E7E7E7"/>
				<stop  offset="1" style="stop-color:#FFFFFF"/>
			</linearGradient>
			<path class="st77" d="M115.67,142.19l26.08-11.03c-5.67,6.64-12.66,11.83-20.56,15.17l-26.08,11.03
				C103.01,154.02,110,148.82,115.67,142.19"/>
		</g>
	</g>
	<g>
		<linearGradient id="SVGID_85_" gradientUnits="userSpaceOnUse" x1="124.5278" y1="129.9445" x2="8.7086" y2="49.5312">
			<stop  offset="0" style="stop-color:#FFFFFF"/>
			<stop  offset="0.1218" style="stop-color:#E7E7E7"/>
			<stop  offset="0.3796" style="stop-color:#A9A9A9"/>
			<stop  offset="0.7489" style="stop-color:#474747"/>
			<stop  offset="1" style="stop-color:#000000"/>
		</linearGradient>
		<path class="st78" d="M66.09,18.25c35.58,4.09,64.76,39.48,65.05,78.9c0.3,39.42-28.4,68.17-63.98,64.08
			C31.58,157.15,2.39,121.74,2.1,82.32S30.51,14.16,66.09,18.25z M67.01,142.03c26.02,2.99,47.01-18.04,46.79-46.87
			c-0.22-28.83-21.56-54.71-47.58-57.7c-26.02-2.99-47.02,18.03-46.8,46.86C19.65,113.14,40.99,139.04,67.01,142.03"/>
	</g>
</g>
</svg>
