<?xml version="1.0" standalone="no"?>
<!DOCTYPE svg PUBLIC "-//W3C//DTD SVG 20010904//EN"
 "http://www.w3.org/TR/2001/REC-SVG-20010904/DTD/svg10.dtd">
<svg version="1.0" xmlns="http://www.w3.org/2000/svg"
 width="1065.000000pt" height="1065.000000pt" viewBox="0 0 1065.000000 1065.000000"
 preserveAspectRatio="xMidYMid meet">
<metadata>
Created by potrace 1.14, written by Peter Selinger 2001-2017
</metadata>
<g transform="translate(0.000000,1065.000000) scale(0.100000,-0.100000)"
fill="#000000" stroke="none">
<path d="M6320 8485 c0 -153 -2 -181 -19 -213 -52 -100 -169 -157 -346 -167
-124 -7 -200 -26 -288 -72 -83 -44 -148 -114 -176 -189 -18 -47 -21 -78 -21
-217 0 -90 -4 -167 -9 -172 -5 -6 -11 -23 -13 -39 -3 -26 -8 -30 -38 -33 -66
-7 -221 -53 -297 -88 -346 -160 -586 -488 -630 -862 -9 -74 -9 -1815 0 -1908
9 -102 15 -131 47 -227 103 -308 329 -550 630 -672 126 -51 224 -69 385 -70
83 -1 175 3 205 7 131 21 303 91 431 178 81 54 223 196 277 276 61 90 127 227
147 303 13 47 25 99 30 130 3 19 8 48 11 64 3 15 6 440 6 945 0 974 -2 1017
-49 1165 -27 87 -111 266 -125 266 -4 0 -8 5 -8 11 0 34 -176 220 -275 290
-149 106 -337 177 -512 194 l-73 8 0 34 c0 20 -4 32 -10 28 -14 -8 -13 305 0
341 22 56 71 104 143 138 77 36 109 44 227 51 115 7 165 19 245 55 77 35 159
109 193 174 26 50 27 56 30 249 l4 197 -61 0 -61 0 0 -175z"/>
<path d="M314 3786 c-113 -22 -226 -98 -254 -172 -33 -85 10 -202 111 -301
l60 -60 -73 1 -73 1 -1 -340 c-2 -411 -11 -613 -34 -760 -5 -32 -4 -52 2 -56
9 -6 173 -6 319 0 20 0 47 10 60 20 23 19 24 23 25 193 3 241 13 451 23 461 4
4 11 -13 15 -40 4 -26 9 -55 11 -63 2 -8 6 -28 9 -45 3 -16 28 -136 54 -265
l48 -235 49 1 c74 2 228 15 236 20 4 2 10 23 14 47 3 23 15 83 25 132 10 50
22 106 25 125 15 89 78 356 86 364 12 14 2 -499 -14 -696 -2 -21 1 -39 7 -41
10 -4 87 -2 332 7 50 1 96 6 101 9 7 5 8 20 3 44 -5 21 -11 79 -15 128 -3 50
-8 113 -10 140 -5 64 -16 275 -20 385 -2 47 -6 170 -10 275 -3 104 -10 192
-15 195 -5 3 -25 5 -45 4 l-37 -2 40 41 c89 92 117 207 81 339 -21 81 -107
128 -244 133 -142 6 -252 -49 -282 -140 -25 -74 8 -229 67 -317 16 -23 27 -44
26 -46 -2 -2 -38 -4 -80 -6 -42 -1 -78 -4 -80 -7 -2 -2 -7 -31 -11 -64 -3 -33
-10 -78 -15 -100 -5 -22 -19 -96 -31 -165 -12 -69 -25 -131 -28 -137 -4 -7
-24 89 -45 215 -21 125 -40 229 -43 232 -2 3 -43 6 -89 6 -47 1 -87 4 -91 7
-3 4 6 20 20 36 47 56 80 138 85 211 5 79 -11 136 -58 211 -48 74 -119 97
-236 75z"/>
<path d="M9199 3373 c-1 -5 -2 -275 -3 -601 -1 -558 0 -594 16 -603 20 -11 20
-16 19 146 l0 100 99 96 c98 94 99 95 116 75 14 -18 108 -124 164 -188 8 -9
56 -64 105 -121 83 -97 118 -126 129 -108 4 6 -36 55 -143 176 -14 17 -62 71
-105 120 -44 50 -94 106 -112 126 l-32 36 27 29 c15 16 98 96 184 178 87 83
157 153 157 156 0 3 -9 6 -20 6 -18 0 -82 -59 -427 -397 -73 -71 -134 -129
-136 -129 -3 0 -4 202 -3 450 1 366 -1 451 -12 455 -18 7 -22 6 -23 -2z"/>
<path d="M5976 3323 c-2 -3 6 -37 19 -76 13 -40 54 -166 90 -282 37 -115 73
-228 80 -250 8 -22 29 -89 48 -150 124 -394 128 -405 145 -405 16 0 21 11 47
100 10 35 46 153 82 270 61 198 191 621 212 690 9 32 12 26 56 -115 20 -66 48
-156 62 -200 48 -153 185 -601 206 -672 27 -89 48 -97 71 -25 52 162 173 543
201 632 18 58 58 186 90 285 68 214 64 197 43 200 -14 3 -23 -15 -43 -83 -25
-81 -80 -255 -127 -397 -11 -33 -21 -67 -23 -75 -13 -48 -40 -136 -95 -305
-60 -183 -67 -208 -70 -230 -2 -24 -22 33 -85 240 -80 264 -129 424 -185 605
-23 74 -45 147 -47 163 -3 15 -9 30 -14 33 -5 3 -9 16 -9 30 0 25 -23 33 -36
13 -4 -6 -27 -77 -51 -158 -24 -80 -45 -150 -47 -156 -2 -5 -5 -17 -9 -25 -3
-8 -53 -175 -112 -370 -104 -345 -124 -404 -125 -369 0 9 -13 56 -29 105 -16
49 -52 163 -81 254 -58 185 -122 385 -151 475 -10 33 -33 103 -49 156 -20 64
-35 96 -45 96 -8 0 -17 -2 -19 -4z"/>
<path d="M5658 3314 c-2 -1 -46 -5 -98 -9 -52 -4 -106 -9 -120 -11 -14 -1 -63
-6 -110 -9 -47 -3 -95 -8 -107 -10 -12 -2 -61 -7 -108 -10 -48 -4 -94 -8 -103
-10 -10 -2 -26 -4 -38 -4 -21 -1 -21 -1 -22 -413 -1 -344 -8 -700 -15 -743 -1
-6 84 -10 243 -9 310 2 552 7 565 11 11 4 14 307 4 318 -3 3 -16 5 -30 6 -20
1 -278 -10 -297 -12 -46 -7 -47 -3 -44 93 1 51 4 93 5 94 1 1 48 5 104 9 56 4
110 8 120 10 10 2 34 4 54 4 l36 1 2 106 2 105 -93 -6 c-51 -3 -123 -8 -160
-10 l-67 -5 2 87 2 87 44 8 c42 7 94 12 231 23 35 3 65 7 66 8 1 1 4 68 7 149
l5 148 -39 -2 c-21 -1 -40 -2 -41 -4z"/>
<path d="M2117 3304 c-1 -1 -23 -5 -49 -8 -166 -22 -326 -119 -408 -246 -31
-49 -78 -165 -84 -209 -14 -96 -18 -132 -20 -183 -6 -150 34 -325 94 -414 76
-110 194 -180 333 -199 39 -6 183 -6 217 -1 218 33 396 208 461 453 20 77 30
279 16 343 -14 65 -21 90 -43 151 -67 180 -194 288 -357 305 -53 5 -157 10
-160 8z m71 -384 c80 -49 114 -239 71 -395 -17 -58 -26 -74 -54 -94 -28 -19
-44 -23 -80 -18 -89 9 -125 75 -133 237 -7 162 18 228 103 273 40 21 54 21 93
-3z"/>
<path d="M4288 3305 c-2 -1 -25 -5 -53 -8 -182 -19 -326 -142 -371 -318 -29
-115 -1 -236 69 -295 66 -56 208 -108 324 -119 130 -13 187 -44 194 -105 7
-68 -20 -110 -71 -110 -49 0 -78 26 -97 86 -18 59 -9 55 -123 60 -61 2 -233 6
-266 5 -21 -1 -22 -5 -17 -68 13 -186 127 -336 301 -397 85 -30 225 -37 330
-16 139 28 279 130 329 238 45 97 36 239 -20 334 -59 97 -144 144 -369 202
-129 33 -177 55 -179 81 -5 55 -1 73 23 95 35 33 84 27 124 -16 21 -22 34 -46
34 -62 0 -48 8 -51 120 -47 58 3 144 6 193 7 l87 3 1 40 c6 218 -134 366 -381
400 -45 6 -178 14 -182 10z"/>
<path d="M2781 3252 c-22 -46 -20 -536 5 -747 16 -141 77 -293 145 -363 117
-119 368 -154 536 -75 128 61 220 209 257 413 31 167 28 611 -3 728 l-8 27
-139 -2 c-76 -1 -162 -5 -191 -8 l-52 -6 7 -97 c4 -53 7 -203 7 -332 0 -215
-2 -238 -20 -275 -27 -53 -59 -69 -97 -47 -50 29 -53 57 -53 429 0 188 -3 344
-6 347 -3 3 -61 8 -130 11 -68 4 -152 8 -187 10 -50 2 -64 0 -71 -13z"/>
<path d="M7845 3003 c-123 -28 -230 -122 -276 -244 -94 -246 22 -519 249 -589
79 -25 192 -25 262 -2 170 58 280 217 281 408 1 200 -104 360 -276 418 -64 22
-166 26 -240 9z m245 -51 c175 -70 272 -280 220 -477 -49 -189 -193 -298 -381
-289 -200 9 -346 167 -354 384 -6 182 95 338 256 393 64 22 190 17 259 -11z"/>
<path d="M8925 3010 c-104 -24 -212 -130 -246 -240 -4 -15 -8 27 -8 102 -1
114 -3 126 -18 124 -17 -3 -18 -31 -20 -414 -2 -397 -1 -412 17 -412 18 0 19
14 23 263 4 292 6 303 76 405 41 60 83 96 141 123 42 19 42 19 79 19 22 0 29
4 27 17 -3 19 -28 24 -71 13z"/>
<path d="M10213 2995 c-98 -30 -162 -105 -164 -193 -3 -112 50 -154 298 -237
193 -65 240 -106 236 -208 -4 -74 -93 -151 -189 -163 -114 -14 -236 17 -320
81 -37 29 -50 31 -57 11 -8 -19 84 -80 161 -108 84 -29 229 -29 297 1 124 55
179 172 130 275 -15 32 -82 96 -100 96 -4 0 -21 7 -38 14 -18 8 -70 27 -117
41 -210 65 -265 108 -263 208 1 27 10 49 30 75 83 102 260 115 412 30 41 -23
56 -27 62 -17 4 7 6 16 3 20 -8 14 -97 59 -143 73 -58 17 -183 18 -238 1z"/>
</g>
</svg>
